<svg version="1.1" id="Layer_1" xmlns="http://www.w3.org/2000/svg" xmlns:xlink="http://www.w3.org/1999/xlink" x="0px" y="0px"
	 width="100%" viewBox="0 0 100 100" enable-background="new 0 0 100 100" xml:space="preserve">
<path fill="#22F5A1" opacity="1.000000" stroke="none" 
	d="
M63.754673,24.743624 
	C59.437286,30.061142 55.402351,35.150162 51.282532,40.169506 
	C50.372509,41.278229 49.162018,42.140331 47.481739,43.669430 
	C46.482510,35.859432 46.211639,29.102861 51.940990,23.557180 
	C55.288940,20.316555 58.508488,16.943674 61.833515,13.678885 
	C70.164513,5.498816 88.858589,7.018056 92.425751,21.066587 
	C94.257843,28.281919 93.546913,35.416672 87.528198,41.008739 
	C85.090965,43.273205 82.613678,45.538906 80.480751,48.078003 
	C74.753738,54.895592 67.444901,56.020981 58.466747,53.487560 
	C61.827339,50.921413 65.286942,48.473663 68.527435,45.763905 
	C74.829193,40.494278 82.634239,36.348598 83.954071,27.047447 
	C84.486450,23.295637 82.787964,19.716299 79.223595,18.982693 
	C75.892731,18.297148 72.036667,19.098152 68.665596,20.099453 
	C66.839027,20.641993 65.542297,22.968353 63.754673,24.743624 
z"/>
<path fill="#22F5A1" opacity="1.000000" stroke="none" 
	d="
M36.070530,47.000038 
	C38.602646,47.000061 40.686878,47.000061 42.771107,47.000061 
	C43.025307,47.503544 43.279503,48.007027 43.533703,48.510509 
	C40.175884,51.075649 37.100346,54.195518 33.396332,56.080299 
	C27.328865,59.167728 17.817785,70.731247 17.995056,75.916199 
	C18.221180,82.530045 25.711533,86.956001 31.113029,83.127960 
	C37.199417,78.814522 42.987000,74.114868 46.310184,66.821136 
	C47.732143,63.700214 51.555267,61.673306 54.592236,58.867622 
	C55.841007,67.110168 55.143997,74.321915 48.535728,80.037086 
	C45.524487,82.641365 42.913857,85.703011 40.030350,88.461922 
	C31.648499,96.481590 13.154366,94.763474 9.720904,81.172325 
	C7.885642,73.907547 8.290476,66.872383 14.245970,61.269459 
	C18.326115,57.430859 22.202147,53.295822 26.689194,50.001186 
	C29.101179,48.230175 32.609184,47.951862 36.070530,47.000038 
z"/>
<path fill="#22F5A1" opacity="1.000000" stroke="none" 
	d="
M61.771461,46.727291 
	C55.413017,53.091339 49.393753,59.293022 43.121876,65.227745 
	C41.830051,66.450134 39.375042,67.569000 37.838764,67.188957 
	C33.788319,66.186966 33.042675,62.642876 36.148674,59.438713 
	C43.661385,51.688541 51.217274,43.963219 59.137657,36.640976 
	C60.557266,35.328579 63.806595,35.995365 66.211105,35.748325 
	C65.992210,38.153931 66.142601,40.678593 65.419441,42.921619 
	C64.967323,44.323975 63.198921,45.301956 61.771461,46.727291 
z"/>
</svg>