<svg version="1.1" id="Layer_1" xmlns="http://www.w3.org/2000/svg" xmlns:xlink="http://www.w3.org/1999/xlink" x="0px" y="0px"
	 width="100%" viewBox="0 0 100 100" enable-background="new 0 0 100 100" xml:space="preserve">
<path fill="#FFFFFF" opacity="1.000000" stroke="none" 
	d="
M21.769764,91.982376 
	C20.668816,92.002876 19.971668,91.880676 19.340408,92.032478 
	C9.904861,94.301422 7.612499,91.824875 9.941895,82.048012 
	C10.801791,78.438889 11.026219,74.655380 12.126572,71.134583 
	C12.860562,68.786018 14.263535,66.398727 15.993591,64.647774 
	C32.507660,47.934273 49.397209,31.584711 65.655128,14.628401 
	C72.927834,7.043276 76.540154,7.602000 85.545563,14.494781 
	C89.137810,17.244303 90.955963,22.665607 92.754021,27.198946 
	C93.325562,28.639933 91.711502,31.624268 90.269417,33.084515 
	C72.707054,50.868076 55.155910,68.671318 37.147385,85.997070 
	C34.199715,88.832993 29.061657,89.395134 24.931511,90.996704 
	C24.032206,91.345428 23.113811,91.644936 21.769764,91.982376 
M60.047916,37.425930 
	C48.766605,48.716496 37.394466,59.918976 26.284386,71.375595 
	C24.186583,73.538834 23.131176,76.712944 21.594772,79.420601 
	C24.868013,79.232986 27.510778,78.788597 29.085003,77.250542 
	C42.162537,64.473465 55.042812,51.494480 68.017197,38.542088 
	C65.732033,36.562134 64.037865,32.556293 60.047916,37.425930 
M74.001190,27.502966 
	C74.741974,28.376141 75.482750,29.249317 76.309425,30.223740 
	C77.773659,28.682407 78.967667,27.425539 80.346107,25.974520 
	C78.861519,24.425274 77.564705,23.071980 75.661201,21.085571 
	C75.321968,23.787228 70.675446,23.562553 74.001190,27.502966 
z"/>
</svg>