<svg version="1.1" id="Layer_1" xmlns="http://www.w3.org/2000/svg" xmlns:xlink="http://www.w3.org/1999/xlink" x="0px" y="0px"
	 width="100%" viewBox="0 0 100 100" enable-background="new 0 0 100 100" xml:space="preserve">
<path fill="#7C8286" opacity="1.000000" stroke="none" 
	d="
M44.312767,22.889635 
	C55.090721,20.623955 59.957520,22.067190 64.965134,28.348383 
	C70.609566,35.428364 70.610138,44.220230 65.974602,51.115070 
	C61.870773,57.219055 52.873726,59.865238 44.801998,57.342281 
	C37.312813,55.001408 33.289051,49.170486 32.932846,41.293236 
	C32.539783,32.600910 35.635357,26.334301 44.312767,22.889635 
M61.949543,33.823765 
	C61.436054,33.183281 60.977352,32.487961 60.400154,31.911238 
	C56.746952,28.261024 52.762600,25.999432 47.301880,27.981699 
	C41.927807,29.932512 38.858971,33.992355 38.229485,39.190964 
	C37.588150,44.487419 41.107674,48.506981 45.164280,51.477821 
	C48.980080,54.272312 54.600479,53.293709 58.735088,49.744904 
	C63.660992,45.516918 64.647545,41.130920 61.949543,33.823765 
z"/>
<path fill="#7C8286" opacity="1.000000" stroke="none" 
	d="
M81.758270,80.450699 
	C81.886932,82.388817 81.836227,83.993889 81.785522,85.598961 
	C79.939026,84.955490 77.380936,84.866539 76.371300,83.570923 
	C72.361458,78.425293 68.026382,74.097069 61.639931,71.813988 
	C46.472221,66.391724 34.558125,71.951843 26.077038,82.753700 
	C25.577717,83.389656 25.306555,84.475273 24.692986,84.696533 
	C23.273277,85.208488 21.708542,85.318260 20.202618,85.591125 
	C20.116623,84.145210 19.460623,82.402153 20.034937,81.300453 
	C24.572016,72.597076 32.171303,67.529915 41.368168,65.118134 
	C57.205101,60.965076 71.612083,66.539337 81.758270,80.450699 
z"/>
</svg>