<svg version="1.1" id="Layer_1" xmlns="http://www.w3.org/2000/svg" xmlns:xlink="http://www.w3.org/1999/xlink" x="0px" y="0px"
	 width="100%" viewBox="0 0 100 100" enable-background="new 0 0 100 100" xml:space="preserve">
<path fill="#FFFFFF" opacity="1.000000" stroke="none" 
	d="
M42.347939,15.826848 
	C48.725075,27.482918 43.504002,40.379677 33.007637,44.016697 
	C21.343163,48.058468 7.884032,41.504421 6.923887,27.524271 
	C5.994697,13.994853 16.600163,4.841038 30.252878,7.164829 
	C35.096371,7.989227 39.796936,10.420640 42.347939,15.826848 
M19.533804,23.000311 
	C14.589097,23.393881 17.944902,26.744150 16.810925,29.101246 
	C19.232855,29.101246 20.977455,29.101246 23.076591,29.101246 
	C23.076591,31.207371 23.076591,32.952446 23.076591,34.791634 
	C25.183655,34.791634 26.924654,34.791634 29.027431,34.791634 
	C29.027431,32.843849 29.027431,31.098492 29.027431,28.997149 
	C31.130323,28.997149 32.875668,28.997149 34.650524,28.997149 
	C34.650524,26.759823 34.650524,24.911465 34.650524,23.135893 
	C32.542084,22.992697 30.795216,22.874058 29.153965,22.762592 
	C28.997761,20.575251 28.872793,18.825319 28.738008,16.937922 
	C26.600132,17.037571 24.855211,17.118904 23.151875,17.198299 
	C22.948690,22.103937 22.948690,22.103937 19.533804,23.000311 
z"/>
<path fill="#FFFFFF" opacity="1.000000" stroke="none" 
	d="
M92.775848,54.998215 
	C64.056534,54.999763 35.815590,54.999763 7.287631,54.999763 
	C7.287631,52.389427 7.287631,49.985722 7.287631,47.287262 
	C36.326210,47.287262 65.476692,47.287262 95.821449,47.287262 
	C94.875198,50.128857 94.064705,52.562763 92.775848,54.998215 
z"/>
<path fill="#FFFFFF" opacity="1.000000" stroke="none" 
	d="
M74.999695,83.000000 
	C52.106453,83.000000 29.713095,83.000000 7.161374,83.000000 
	C7.161374,80.607445 7.161374,78.653023 7.161374,76.348633 
	C36.201733,76.348633 65.343033,76.348633 94.742805,76.348633 
	C94.742805,78.334824 94.742805,80.402702 94.742805,83.000000 
	C88.356499,83.000000 81.928040,83.000000 74.999695,83.000000 
z"/>
<path fill="#FFFFFF" opacity="1.000000" stroke="none" 
	d="
M66.000534,26.000000 
	C59.544262,26.000000 53.587879,26.000000 47.316334,26.000000 
	C47.316334,23.766331 47.316334,21.701601 47.316334,19.000000 
	C54.978855,19.000000 62.876305,19.000000 70.773750,19.000000 
	C78.702721,19.000000 86.631691,19.000000 94.778015,19.000000 
	C94.778015,21.396078 94.778015,23.459797 94.778015,26.000000 
	C85.314384,26.000000 75.907402,26.000000 66.000534,26.000000 
z"/>
</svg>