<svg version="1.1" id="Layer_1" xmlns="http://www.w3.org/2000/svg" xmlns:xlink="http://www.w3.org/1999/xlink" x="0px" y="0px"
	 width="100%" viewBox="0 0 100 100" enable-background="new 0 0 100 100" xml:space="preserve">
<path fill="#FFFFFF" opacity="1.000000" stroke="none" 
	d="
M1.000000,34.468658 
	C5.725824,33.093407 10.451648,32.186810 15.499857,31.218369 
	C15.499857,44.627041 15.499857,57.109486 15.499857,70.979691 
	C10.787651,69.761719 6.230653,68.583870 1.336828,67.703003 
	C1.000000,56.979107 1.000000,45.958210 1.000000,34.468658 
z"/>
<path fill="#FFFFFF" opacity="1.000000" stroke="none" 
	d="
M54.991425,10.561642 
	C54.999321,36.504330 55.074036,61.993877 54.881901,87.481407 
	C54.863235,89.957535 53.511799,94.292297 52.228756,94.509186 
	C49.377224,94.991241 45.323433,94.353180 43.269390,92.499168 
	C35.370407,85.369446 28.026077,77.619835 20.592762,69.986641 
	C19.694258,69.063980 19.084490,67.447693 19.068289,66.143845 
	C18.944098,56.149708 18.912058,46.151756 19.091057,36.159283 
	C19.119213,34.587486 19.987438,32.679066 21.095798,31.535503 
	C28.164379,24.242413 35.372219,17.082586 42.609493,9.955334 
	C46.969746,5.661364 51.620609,5.785137 54.991425,10.561642 
z"/>
<path fill="#FFFFFF" opacity="1.000000" stroke="none" 
	d="
M80.289825,31.786736 
	C89.704376,40.926781 89.517242,62.371422 79.804321,70.689957 
	C77.576553,72.597908 75.527237,74.819221 73.028091,76.257355 
	C71.917824,76.896248 69.894447,75.948380 68.285538,75.720757 
	C69.089378,74.388985 69.569084,72.532860 70.746323,71.805130 
	C85.355675,62.774090 86.512032,40.772415 71.513664,30.954584 
	C69.889420,29.891367 66.257378,29.066685 68.705765,26.226772 
	C69.551521,25.245762 73.165466,25.851156 75.015907,26.754330 
	C76.992165,27.718920 78.378830,29.891470 80.289825,31.786736 
z"/>
<path fill="#FFFFFF" opacity="1.000000" stroke="none" 
	d="
M72.899605,55.294090 
	C69.940598,58.579723 67.196289,61.605976 64.093948,64.204826 
	C63.450687,64.743690 61.478287,63.695904 60.118454,63.379368 
	C60.715935,62.119087 61.024574,60.060417 61.956078,59.723423 
	C70.236885,56.727631 70.483185,45.486755 61.855587,42.217461 
	C60.956314,41.876694 60.718060,39.791519 60.173107,38.515709 
	C61.542706,38.261932 63.099060,37.454285 64.252014,37.843033 
	C72.588074,40.653790 73.499092,47.438614 72.899605,55.294090 
z"/>
</svg>