<svg version="1.1" id="Layer_1" xmlns="http://www.w3.org/2000/svg" xmlns:xlink="http://www.w3.org/1999/xlink" x="0px" y="0px"
	 width="100%" viewBox="0 0 100 100" enable-background="new 0 0 100 100" xml:space="preserve">
<path fill="#FFFFFF" opacity="1.000000" stroke="none" 
	d="
M81.787567,44.000000 
	C86.082245,43.654491 89.455093,44.082481 91.018524,48.390347 
	C92.193726,51.628483 91.483894,54.429424 88.931908,56.444618 
	C87.680527,57.432789 85.716766,57.905579 84.063911,57.933578 
	C75.592155,58.077110 67.116669,58.000000 58.000000,58.000000 
	C58.000000,66.712334 58.009583,75.289955 57.996094,83.867546 
	C57.988998,88.381905 54.615154,92.146706 50.792885,91.953522 
	C47.013638,91.762512 44.012077,88.251808 44.004433,83.952545 
	C43.989380,75.488914 44.000000,67.025253 44.000000,58.000000 
	C35.194519,58.000000 26.607218,58.011047 18.019964,57.995338 
	C13.726542,57.987484 10.215829,54.962357 10.046467,51.179630 
	C9.875167,47.353626 13.633858,44.010509 18.159927,44.003666 
	C26.613142,43.990891 35.066387,44.000000 44.000000,44.000000 
	C44.000000,35.100842 43.981949,26.504110 44.006855,17.907501 
	C44.021507,12.850120 46.031986,10.960384 51.236340,11.000008 
	C55.950920,11.035902 57.979301,13.067841 57.993164,17.880957 
	C58.017586,26.360292 58.000000,34.839752 58.000000,44.000000 
	C65.834435,44.000000 73.575890,44.000000 81.787567,44.000000 
z"/>
</svg>