<svg version="1.1" id="Layer_1" xmlns="http://www.w3.org/2000/svg" xmlns:xlink="http://www.w3.org/1999/xlink" x="0px" y="0px"
	 width="100%" viewBox="0 0 100 100" enable-background="new 0 0 100 100" xml:space="preserve">
<path fill="#FFFFFF" opacity="1.000000" stroke="none" 
	d="
M74.580360,87.999977 
	C58.804363,88.000000 43.487797,88.008202 28.171253,87.995483 
	C22.933081,87.991135 21.011499,86.134148 21.006601,81.026840 
	C20.989532,63.227604 21.000002,45.428337 21.000002,27.314749 
	C40.883190,27.314749 60.607700,27.314749 80.678406,27.314749 
	C80.769943,28.184864 80.983742,29.277628 80.985100,30.370657 
	C81.006287,47.352028 80.967712,64.333542 81.023079,81.314758 
	C81.036606,85.465172 79.312233,87.809418 74.580360,87.999977 
z"/>
<path fill="#FFFFFF" opacity="1.000000" stroke="none" 
	d="
M76.805939,14.000000 
	C77.943764,14.000004 78.612854,14.040868 79.275536,13.992966 
	C82.207664,13.781017 84.684624,14.355352 84.971962,17.865797 
	C85.337875,22.336121 81.023262,21.537516 79.284317,21.544695 
	C60.390095,21.622690 41.493500,21.279980 22.599123,20.959410 
	C20.401829,20.922129 17.039993,22.229319 17.057446,18.098473 
	C17.073891,14.205495 19.940523,13.905245 22.994764,13.979093 
	C26.656416,14.067626 30.345154,14.251842 33.977821,13.915597 
	C36.604042,13.672510 40.316750,15.984903 41.609009,11.312486 
	C41.702305,10.975153 43.442883,11.019897 44.418465,11.012851 
	C48.581646,10.982783 52.748482,10.904059 56.906929,11.047528 
	C58.556301,11.104432 61.212456,9.799855 61.207142,13.372900 
	C61.206833,13.580352 63.248051,13.951221 64.344193,13.971183 
	C68.339729,14.043945 72.337402,13.999974 76.805939,14.000000 
z"/>
</svg>